<?xml version="1.0" encoding="UTF-8"?>
<svg id="Layer_2" data-name="Layer 2" xmlns="http://www.w3.org/2000/svg" version="1.1" viewBox="0 0 150 100">
  <defs>
    <style>
      .cls-1 {
        fill: #231f20;
      }

      .cls-1, .cls-2 {
        stroke-width: 0px;
      }

      .cls-3 {
        opacity: .5;
      }

      .cls-2 {
        fill: #009444;
      }
    </style>
  </defs>
  <path class="cls-1" d="M99.7,60c-.2,4.1-1.3,7.6-3.3,10.8s-4.8,5.5-8.4,7.2c-3.6,1.7-7.7,2.6-12.4,2.6-7.7,0-13.7-2.5-18.1-7.5-4.4-5-6.6-12-6.6-21.1v-2.9c0-5.7,1-10.7,3-15,2-4.3,4.9-7.6,8.6-9.9,3.7-2.3,8.1-3.5,13-3.5,7.1,0,12.8,1.9,17.1,5.6,4.3,3.7,6.7,8.9,7.3,15.4h-14c-.1-3.5-1-6.1-2.7-7.6-1.7-1.5-4.2-2.3-7.7-2.3s-6.1,1.3-7.7,3.9c-1.6,2.6-2.5,6.8-2.6,12.5v4.1c0,6.2.8,10.7,2.3,13.3,1.6,2.7,4.3,4,8.1,4s5.7-.8,7.4-2.3c1.7-1.5,2.6-3.9,2.7-7.2h14Z"/>
  <g class="cls-3">
    <path class="cls-2" d="M75,15c19.3,0,35,15.7,35,35s-15.7,35-35,35-35-15.7-35-35S55.7,15,75,15M75,5c-24.9,0-45,20.1-45,45s20.1,45,45,45,45-20.1,45-45S99.9,5,75,5h0Z"/>
  </g>
</svg>