<?xml version="1.0" encoding="utf-8"?>
<!-- Generator: Adobe Illustrator 26.3.1, SVG DataExport Plug-In . SVG Version: 6.00 Build 0)  -->
<svg version="1.1" id="Layer_1" xmlns="http://www.w3.org/2000/svg" xmlns:xlink="http://www.w3.org/1999/xlink" x="0px" y="0px"
	 viewBox="0 0 48 48" style="enable-background:new 0 0 48 48;" xml:space="preserve">
<style type="text/css">
	.st0{fill:#FF3B30;}
</style>
<path class="st0" d="M13.1,42c-0.8,0-1.5-0.3-2.1-0.9c-0.6-0.6-0.9-1.3-0.9-2.1V10.5H8v-3h9.4V6h13.2v1.5H40v3h-2V39
	c0,0.8-0.3,1.5-0.9,2.1C36.5,41.7,35.8,42,35,42H13.1z M35,10.5H13.1V39l0,0l0,0H35l0,0l0,0V10.5z M18.4,34.7h3v-20h-3V34.7z
	 M26.6,34.7h3v-20h-3V34.7z M13.1,10.5V39l0,0l0,0l0,0l0,0V10.5z"/>
</svg>
