<?xml version="1.0" encoding="UTF-8"?>
<svg xmlns="http://www.w3.org/2000/svg" version="1.1" viewBox="0 0 24 24">
  <defs>
    <style>
      .cls-1 {
        fill: #ff3b30;
      }
    </style>
  </defs>
  <!-- Generator: Adobe Illustrator 28.6.0, SVG Export Plug-In . SVG Version: 1.2.0 Build 709)  -->
  <g>
    <g id="Layer_1">
      <path class="cls-1" d="M4,22l-2-2L20,2l2,2L4,22ZM9.9,8.1l-2.5-2.5L12,1l3.6,3.6-2.5,2.5-1.1-1.1-2.1,2.1ZM4.6,15.6l-3.6-3.6,4.6-4.6,2.5,2.5-2.1,2.1,1.1,1.1-2.5,2.5ZM18.4,16.6l-2.5-2.5,2.1-2.1-1.1-1.1,2.5-2.5,3.6,3.6-4.6,4.6ZM12,23l-3.6-3.6,2.5-2.5,1.1,1.1,2.1-2.1,2.5,2.5-4.6,4.6Z"/>
    </g>
  </g>
</svg>
