<?xml version="1.0" encoding="UTF-8"?><svg id="Layer_2" xmlns="http://www.w3.org/2000/svg" viewBox="0 0 150 100"><defs><style>.cls-1{fill:#daedda;stroke:#4db85a;}.cls-1,.cls-2,.cls-3,.cls-4,.cls-5{stroke-linecap:round;stroke-miterlimit:10;}.cls-2{fill:#fbd1d1;stroke:#ef4036;}.cls-3{fill:#e4f4f6;stroke:#4274b9;}.cls-4{fill:#f1ddec;stroke:#925ca6;}.cls-5{fill:none;stroke:#231f20;}</style></defs><path class="cls-2" d="M30,50c6.17-15.44,17.97-35.4,24.69-35.4,5.99,0,16.02,27.09,20.46,27.09,4.67,0,16.93-11.87,24.64-11.87,10.09,0,18.29,15.24,20.21,20.18"/><path class="cls-3" d="M30.14,50.22c6.17-8.9,17.97-20.41,24.69-20.41,5.99,0,14.04,11.4,20.31,20.41,7.02,10.09,13.71,17.25,21.42,17.25,10.09,0,22.52-15.89,23.58-17.25"/><path class="cls-1" d="M30,49.64c9.46-6.24,17.57-8.75,24.29-8.74,5.99,0,12.11,9.31,20.71,8.74,12.27-.81,16.87-15.02,24.59-15.02,10.09,0,19.35,13.66,20.41,15.02"/><path class="cls-4" d="M30.14,49.64c8.13-.99,16.64-3.41,23.36-3.4,5.99,0,13.05,3.97,21.64,3.4,12.27-.81,21.08-5.98,28.8-5.98,10.09,0,15.14,4.61,16.2,5.98"/><line class="cls-5" x1="75" y1="5" x2="75" y2="95"/><line class="cls-5" y1="50" x2="150" y2="50"/></svg>