<?xml version="1.0" encoding="UTF-8"?>
<svg id="Layer_1" data-name="Layer 1" xmlns="http://www.w3.org/2000/svg" version="1.1" viewBox="0 0 150 100">
  <defs>
    <style>
      .cls-1 {
        fill: #39b54a;
      }

      .cls-1, .cls-2, .cls-3 {
        stroke-width: 0px;
      }

      .cls-2 {
        fill: #231f20;
      }

      .cls-4 {
        opacity: .5;
      }

      .cls-3 {
        fill: #fff;
      }
    </style>
  </defs>
  <rect class="cls-3" width="150" height="100"/>
  <g class="cls-4">
    <path class="cls-1" d="M44.7,54.2h13.9c.9,0,1.6.7,1.6,1.6v44.1h-17.2v-44.1c0-.9.7-1.6,1.6-1.6Z"/>
    <path class="cls-1" d="M67.3,15.6h13.9c.9,0,1.6.7,1.6,1.6v82.8h-17.2V17.2c0-.9.7-1.6,1.6-1.6Z"/>
    <path class="cls-1" d="M91.4,34.1h13.9c.9,0,1.6.7,1.6,1.6v64.2h-17.2V35.8c0-.9.7-1.6,1.6-1.6Z"/>
  </g>
  <path class="cls-2" d="M57.3,58.4l8-6.9c1.8,3,4.8,5,8,5s4-.7,4.4-2.7c.5-2.7-3-4.7-6.4-6.8-5.2-3.2-8.7-7.7-7.4-13.9,1.4-6.6,8.2-11.3,15.9-11.3s11.2,3.2,13,7.7l-7.8,6.7c-1.1-2.2-3.4-3.6-5.9-3.6s-3.5,1.2-3.7,2.6c-.4,2.3,3.3,3.9,6.3,5.7,5.6,3.4,9.2,7.7,8,14.2-1.3,7.3-7.6,12.2-16.9,12.2s-13.2-3.7-15.4-8.8Z"/>
</svg>